<svg id="Layer_1" data-name="Layer 1" xmlns="http://www.w3.org/2000/svg" viewBox="0 0 475.4 247.98">
    <defs>
        <style>
            .cls-1 {
                fill: #181818;
                fill-rule: evenodd;
            }
        </style>
    </defs>
    <path class="cls-1"
        d="M56.76,348.37s50.77-24.59,97-29.46c45.55-4.8,86.55,10.13,86.55,10.13l11.05,64.14-24.86,11.36,30.69,17.8,17.49,111.4s-46.46-41.29-81-47.26c-47.08-8.13-81.95,7.67-81.95,7.67L47.24,369.24l5.53-10.43,62,125.52s39.07-14.74,79.49-4c38.53,10.25,74.58,43.89,74.58,43.89s-30.66-35.91-68.44-47.57c-38-11.73-81.33.31-81.33.31l-62.3-128.6Zm95.14,59.54L162,446.27a102.67,102.67,0,0,1,18.1.93,101,101,0,0,1,17.5,4.6l-9.21-41.43s-9.07-3.47-16.88-4a75.7,75.7,0,0,0-19.64,1.53ZM135,348.68l9.82,35a130.31,130.31,0,0,1,17.8-2.15,165.82,165.82,0,0,1,20.26.61L174,344.38a89.16,89.16,0,0,0-17.81,0A146.83,146.83,0,0,0,135,348.68Z"
        transform="translate(-47.24 -293.13)" />
    <path class="cls-1"
        d="M249.19,332.11s9-14.74,28.23-24.86c17.71-9.33,45.73-14.12,45.73-14.12L297.37,447.2a51.8,51.8,0,0,1,14.43-13.51c8.29-5.07,20.25-7.67,20.25-7.67l-3.37,28.23a75.55,75.55,0,0,0-32.23,30.08c-12.44,22-16.88,56.78-16.88,56.78Z"
        transform="translate(-47.24 -293.13)" />
    <path class="cls-1"
        d="M322.84,327.5a270.82,270.82,0,0,1,36.22-7.06,265.67,265.67,0,0,1,37.13-1.22L361.51,457A96.51,96.51,0,0,1,376.86,454a148,148,0,0,1,18.11-.62l43.58-127.67a225,225,0,0,1,36.83,9.82,227,227,0,0,1,34.37,16.88L444.07,485.87s-25.56-12.13-67.82-6.45c-66.37,8.91-89.93,50.33-89.93,50.33s6.53-27.47,17.5-43.27a52,52,0,0,1,26.39-20L341.26,419s-9.69,2.28-18.72,5.52a176.92,176.92,0,0,0-17.19,7.37Z"
        transform="translate(-47.24 -293.13)" />
    <path class="cls-1"
        d="M517.42,359.11,447.75,493.84s-44.63-16.1-88.38-6.75c-53.46,11.43-72.43,44.81-72.43,44.81s35.17-31.79,76.11-38.67c39.34-6.61,86.55,10.44,86.55,10.44l73-134.74Z"
        transform="translate(-47.24 -293.13)" />
</svg>